<mxfile host="app.diagrams.net" modified="2024-04-22T14:15:16.564Z" agent="Mozilla/5.0 (Macintosh; Intel Mac OS X 10_15_7) AppleWebKit/605.1.15 (KHTML, like Gecko) Version/17.4.1 Safari/605.1.15" etag="LJjaj4M_riOqetuaUkAV" version="24.2.7" type="device">
  <diagram name="Page-1" id="e3a06f82-3646-2815-327d-82caf3d4e204">
    <mxGraphModel dx="1591" dy="929" grid="1" gridSize="10" guides="1" tooltips="1" connect="1" arrows="1" fold="1" page="1" pageScale="1.5" pageWidth="1169" pageHeight="826" background="none" math="0" shadow="0">
      <root>
        <mxCell id="0" style=";html=1;" />
        <mxCell id="1" style=";html=1;" parent="0" />
        <mxCell id="qkpdTrDgqfQ7fkcq6MS--19" value="" style="rounded=0;whiteSpace=wrap;html=1;fillColor=#fff2cc;strokeColor=#d6b656;" vertex="1" parent="1">
          <mxGeometry x="310" y="20" width="1180" height="450" as="geometry" />
        </mxCell>
        <mxCell id="6a7d8f32e03d9370-35" style="edgeStyle=none;rounded=0;html=1;startSize=10;endSize=10;jettySize=auto;orthogonalLoop=1;fontSize=14;endArrow=none;endFill=0;strokeWidth=2;" parent="1" source="6a7d8f32e03d9370-2" target="6a7d8f32e03d9370-9" edge="1">
          <mxGeometry relative="1" as="geometry" />
        </mxCell>
        <mxCell id="6a7d8f32e03d9370-2" value="&lt;font style=&quot;font-size: 24px;&quot;&gt;React&lt;/font&gt;" style="verticalLabelPosition=bottom;aspect=fixed;html=1;verticalAlign=top;strokeColor=none;shape=mxgraph.citrix.laptop_2;fillColor=#66B2FF;gradientColor=#0066CC;fontSize=14;" parent="1" vertex="1">
          <mxGeometry x="374.1299999999999" y="133.5" width="116" height="86.5" as="geometry" />
        </mxCell>
        <mxCell id="6a7d8f32e03d9370-39" style="edgeStyle=none;rounded=0;html=1;startSize=10;endSize=10;jettySize=auto;orthogonalLoop=1;fontSize=14;endArrow=none;endFill=0;strokeWidth=2;" parent="1" edge="1">
          <mxGeometry relative="1" as="geometry">
            <mxPoint x="759" y="858.8827160493825" as="targetPoint" />
            <mxPoint x="713" y="858.1255144032921" as="sourcePoint" />
          </mxGeometry>
        </mxCell>
        <mxCell id="6a7d8f32e03d9370-40" style="edgeStyle=none;rounded=0;html=1;startSize=10;endSize=10;jettySize=auto;orthogonalLoop=1;fontSize=14;endArrow=classic;endFill=1;strokeWidth=2;startArrow=classic;startFill=1;" parent="1" source="6a7d8f32e03d9370-9" target="qkpdTrDgqfQ7fkcq6MS--6" edge="1">
          <mxGeometry relative="1" as="geometry">
            <mxPoint x="940" y="250.92060085836897" as="targetPoint" />
          </mxGeometry>
        </mxCell>
        <mxCell id="qkpdTrDgqfQ7fkcq6MS--16" value="&lt;span style=&quot;font-size: 24px; background-color: rgb(251, 251, 251);&quot;&gt;Registered User Data Access&lt;/span&gt;" style="edgeLabel;html=1;align=center;verticalAlign=middle;resizable=0;points=[];" vertex="1" connectable="0" parent="6a7d8f32e03d9370-40">
          <mxGeometry x="0.1043" y="-3" relative="1" as="geometry">
            <mxPoint as="offset" />
          </mxGeometry>
        </mxCell>
        <mxCell id="6a7d8f32e03d9370-9" value="&lt;font style=&quot;font-size: 25px;&quot;&gt;Spring Boot&lt;/font&gt;" style="verticalLabelPosition=bottom;aspect=fixed;html=1;verticalAlign=top;strokeColor=none;shape=mxgraph.citrix.xenapp_server;fillColor=#66B2FF;gradientColor=#0066CC;fontSize=14;" parent="1" vertex="1">
          <mxGeometry x="760" y="150" width="153.71" height="180" as="geometry" />
        </mxCell>
        <mxCell id="6a7d8f32e03d9370-62" value="Drafter Architecture" style="text;strokeColor=none;fillColor=none;html=1;fontSize=24;fontStyle=1;verticalAlign=middle;align=center;" parent="1" vertex="1">
          <mxGeometry x="390" y="40" width="861" height="40" as="geometry" />
        </mxCell>
        <mxCell id="qkpdTrDgqfQ7fkcq6MS--4" value="Client" style="verticalLabelPosition=bottom;sketch=0;aspect=fixed;html=1;verticalAlign=top;strokeColor=none;align=center;outlineConnect=0;shape=mxgraph.citrix.pda;" vertex="1" parent="1">
          <mxGeometry x="410" y="280" width="44.26" height="90" as="geometry" />
        </mxCell>
        <mxCell id="qkpdTrDgqfQ7fkcq6MS--5" style="edgeStyle=none;rounded=0;html=1;startSize=10;endSize=10;jettySize=auto;orthogonalLoop=1;fontSize=14;endArrow=none;endFill=0;strokeWidth=2;" edge="1" parent="1" source="qkpdTrDgqfQ7fkcq6MS--4" target="6a7d8f32e03d9370-9">
          <mxGeometry relative="1" as="geometry">
            <mxPoint x="336" y="231" as="sourcePoint" />
            <mxPoint x="520" y="289" as="targetPoint" />
          </mxGeometry>
        </mxCell>
        <mxCell id="qkpdTrDgqfQ7fkcq6MS--6" value="&lt;font style=&quot;font-size: 24px;&quot;&gt;Postgres&lt;/font&gt;" style="verticalLabelPosition=bottom;sketch=0;aspect=fixed;html=1;verticalAlign=top;strokeColor=#d6b656;align=center;outlineConnect=0;shape=mxgraph.citrix.database;fillColor=#fff2cc;" vertex="1" parent="1">
          <mxGeometry x="1260" y="110" width="76.5" height="90" as="geometry" />
        </mxCell>
        <mxCell id="qkpdTrDgqfQ7fkcq6MS--11" value="" style="rounded=0;orthogonalLoop=1;jettySize=auto;html=1;startArrow=classic;startFill=1;strokeWidth=2;" edge="1" parent="1" source="qkpdTrDgqfQ7fkcq6MS--7" target="qkpdTrDgqfQ7fkcq6MS--10">
          <mxGeometry relative="1" as="geometry" />
        </mxCell>
        <mxCell id="qkpdTrDgqfQ7fkcq6MS--7" value="&lt;font style=&quot;font-size: 24px;&quot;&gt;PDF/ Docx Process&lt;/font&gt;" style="verticalLabelPosition=bottom;sketch=0;aspect=fixed;html=1;verticalAlign=top;strokeColor=none;align=center;outlineConnect=0;shape=mxgraph.citrix.process;" vertex="1" parent="1">
          <mxGeometry x="1020" y="334.5" width="60.39" height="72" as="geometry" />
        </mxCell>
        <mxCell id="qkpdTrDgqfQ7fkcq6MS--8" style="edgeStyle=none;rounded=0;html=1;jettySize=auto;orthogonalLoop=1;fontSize=14;endArrow=classic;endFill=1;strokeWidth=2;exitX=0.43;exitY=0.974;exitDx=0;exitDy=0;exitPerimeter=0;startArrow=classic;startFill=1;" edge="1" parent="1" source="6a7d8f32e03d9370-9" target="qkpdTrDgqfQ7fkcq6MS--7">
          <mxGeometry relative="1" as="geometry">
            <mxPoint x="540" y="400" as="sourcePoint" />
            <mxPoint x="1086" y="511" as="targetPoint" />
          </mxGeometry>
        </mxCell>
        <mxCell id="qkpdTrDgqfQ7fkcq6MS--10" value="&lt;font style=&quot;font-size: 24px;&quot;&gt;OpenAI Chat Completion&lt;/font&gt;" style="verticalLabelPosition=bottom;sketch=0;aspect=fixed;html=1;verticalAlign=top;strokeColor=none;align=center;outlineConnect=0;shape=mxgraph.citrix.process;" vertex="1" parent="1">
          <mxGeometry x="1280" y="322.5" width="70.45" height="84" as="geometry" />
        </mxCell>
      </root>
    </mxGraphModel>
  </diagram>
</mxfile>
